<svg id="Group_2102" data-name="Group 2102" xmlns="http://www.w3.org/2000/svg" width="615.068" height="1082" viewBox="0 0 615.068 1082">
  <rect id="Rectangle_360" data-name="Rectangle 360" width="614" height="1082" fill="#f5f6f8"/>
  <g id="Group_2101" data-name="Group 2101">
    <path id="Intersection_1" data-name="Intersection 1" d="M19413.7,5919.695l2-39.426s212.713-65.247,322.566,74.265c85.717,98.921,231.842,46.074,289.438,128.265v405.668c-51.646,101.011-171.564,107.142-355.471,173.137-141.721,50.857-217.859,91.284-258.529,118.883Z" transform="translate(-19413.703 -5744)" fill="#eff0f4"/>
    <g id="Group_2100" data-name="Group 2100">
      <g id="Group_2055" data-name="Group 2055" transform="translate(7)">
        <path id="Path_761" data-name="Path 761" d="M413.224,956.537l-1.085,26.9-.848,21.221,18.787,2.134,5.959-26.53,4.33-19.171Z" transform="translate(-257.104 -43.992)" fill="#fec3a4"/>
        <path id="Path_762" data-name="Path 762" d="M405.951,996.317a82.144,82.144,0,0,0,.09,10.567l79.821,9.068s4.2-9.241-2.422-10.787c-6.6-1.52-10.961-2.627-10.961-2.627l-35.35-19.647a1.507,1.507,0,0,0-1.668.128,1.28,1.28,0,0,0-.285.308l0,.045-3.006,5.118s-6.5,2-10.394,1.56l-8.258-3.68a3.061,3.061,0,0,0-1.95-.176,2.818,2.818,0,0,0-1.838,1.423c-.028.042-.033.087-.06.129Z" transform="translate(-256.527 -46.746)" fill="#e3e3e3"/>
      </g>
      <g id="Group_2099" data-name="Group 2099">
        <g id="Group_2007" data-name="Group 2007" transform="translate(227.318 919.478)">
          <path id="Path_793" data-name="Path 793" d="M484.619,967.638l1.959,26.853,1.553,21.181h18.907l2.926-27.033L512.1,969.1Z" transform="translate(-482.143 -967.638)" fill="#fec3a4"/>
          <path id="Path_794" data-name="Path 794" d="M481.852,1007.6a82.258,82.258,0,0,0,1.283,10.49h80.333s3.129-9.657-3.624-10.444c-6.73-.766-11.187-1.373-11.187-1.373l-37.342-15.531a1.508,1.508,0,0,0-1.643.315,1.3,1.3,0,0,0-.248.338v.045l-2.409,5.425s-6.235,2.723-10.151,2.723l-8.621-2.723a3.063,3.063,0,0,0-1.958.045,2.817,2.817,0,0,0-1.666,1.621c-.022.045-.022.089-.045.135Z" transform="translate(-481.852 -970.059)" fill="#e3e3e3"/>
        </g>
        <g id="Group_2011" data-name="Group 2011" transform="translate(1)">
          <rect id="Rectangle_358" data-name="Rectangle 358" width="297.396" height="26.547" transform="translate(316.672 509.535)" fill="#e29561"/>
          <path id="Path_760" data-name="Path 760" d="M619.4,498.85c-5.9.474-8.643-6.03-15.416,0-1.136.054-2.577.089-4.232.125-9.117.17-24.891.063-34.3-.036.089-3.981.546-11.094.9-16.266v-.027c7.695-2.452,38.419-11.318,50.435-.716,5.315,4.679,7.793,8.2,8.5,10.781h.009C626.424,496.819,623.042,498.564,619.4,498.85Z" transform="translate(-263.336 6.516)" fill="#ffc3a1"/>
          <line id="Line_316" data-name="Line 316" y2="4.502" transform="translate(244.014 505.361)" fill="none" stroke="#fff" stroke-miterlimit="10" stroke-width="1"/>
          <path id="Path_763" data-name="Path 763" d="M396.671,605.937c.922,2.926,1.958,5.829,3.129,8.756,21.293,52.85,63.88,132.869,63.88,132.869l.743,27.978v.022l3.8,144.641,6.46.293,32.052,1.463,6.167.293s23.612-177.661,21.563-193.057c0,0-13.415-95.055-45.557-164.472V520.381s-25.773,14.248-62.777,11.524c-13.235-1.98-25.727-4.861-30.544-11.929C391.089,538.455,385.979,572.2,396.671,605.937Z" transform="translate(-244.898 1.974)" fill="#3ab8ef"/>
          <path id="Path_764" data-name="Path 764" d="M400.418,503.951a134.619,134.619,0,0,0-4.21,14.338" transform="translate(-245.516 3.662)" fill="none" stroke="#fff" stroke-miterlimit="10" stroke-width="1"/>
          <path id="Path_765" data-name="Path 765" d="M393.878,504.522a12.35,12.35,0,0,0,2.049,8.351c4.816,7.067,17.309,9.948,30.544,11.929,37.005,2.724,62.777-11.524,62.777-11.524V500.785c-21.608-.27-42.721-.945-50.149-1.755-17.264-1.913-26.042-6.843-26.042-6.843s-11.795-6.3-16.162-24.4c-1.126-4.614-2.3-9.948-3.421-15.35C394.508,470.376,395.094,490.521,393.878,504.522Z" transform="translate(-245.229 9.085)" fill="#efa22c"/>
          <path id="Path_766" data-name="Path 766" d="M402.006,765.015c-.72,13.956,0,159.317,0,159.317l6.573.539,32.435,2.7h.022l5.019.428,19.11-142.322v-.022l-.743-27.978s-42.586-80.018-63.88-132.869c-1.171-2.927-2.206-5.83-3.129-8.756C397.1,660.8,402.682,752.162,402.006,765.015Z" transform="translate(-245.641 -8.142)" fill="#2589b5"/>
          <path id="Path_767" data-name="Path 767" d="M478.876,762.872" transform="translate(-254.221 -23.601)" fill="none" stroke="#fff" stroke-miterlimit="10" stroke-width="1"/>
          <path id="Path_792" data-name="Path 792" d="M466.426,294.4a8.494,8.494,0,0,0,0,1.508,5.38,5.38,0,0,0,.068.608c0,.045.022.113.022.18.045.315.09.608.157.923a7.487,7.487,0,0,0,.2.968c.045.225.089.45.157.7a.289.289,0,0,1,.022.135.362.362,0,0,1,.022.09c.022.022.022.022.022.045q.338,1.283.811,2.566c.045.113.067.225.112.338l.022.022v.022l.023.022,4.592,6.933c8.013,15.846,10.512,32.75,11.637,37.094,0,0,.316,1.036.923,2.588.428,1.126,1.013,2.5,1.688,3.962a36.092,36.092,0,0,0,10.016-27.281c-.518-10.557-1.463-20.145-2.994-26.448-.946-3.962-2.138-6.595-3.579-7.36a2.042,2.042,0,0,0-.788-.2c-.45.135-.9.27-1.4.383a22.433,22.433,0,0,1-5.221.608,23.181,23.181,0,0,1-3.6-.27.289.289,0,0,0-.135-.022c-1.644-.405-3.286-.946-4.884-1.508-.023,0-.046,0-.046-.022-1.013-.337-1.98-.72-2.926-1.058a5.459,5.459,0,0,0-1.058.022c-.225.022-.4.068-.608.09a4.027,4.027,0,0,0-2.138,1.17c-.09.113-.18.248-.269.36a2.1,2.1,0,0,0-.225.383,2.268,2.268,0,0,0-.225.472,1.592,1.592,0,0,0-.112.293,5.1,5.1,0,0,0-.248,1.171A1.985,1.985,0,0,0,466.426,294.4Z" transform="translate(-252.906 26.199)" fill="#6c222c"/>
          <path id="Path_768" data-name="Path 768" d="M473.14,805.615" transform="translate(-253.615 -28.101)" fill="none" stroke="#fff" stroke-miterlimit="10" stroke-width="1"/>
          <path id="Path_771" data-name="Path 771" d="M502.192,221.113V221.1c-.25-.546-.519-1.109-.769-1.691-1.8-4.026-3.758-8.822-4.563-8.536,1.888,4.975,4.5,17.563-15.291,20.847-.107.018-.242.045-.358.072-.134.018-.268.045-.4.063s-.268.027-.4.045a7.173,7.173,0,0,1-.752.089,10.183,10.183,0,0,1-2.138.027h-.134a22.131,22.131,0,0,1-3.212-.519c-.564,1.011-1.109,2.094-1.619,3.176-.456.922-.9,1.861-1.351,2.765-2.255,4.5-4.778,8.482-9.072,8.258a91.9,91.9,0,0,0-.134-10.039.378.378,0,0,0-.027-.179,7.058,7.058,0,0,0-.107-.743,10.27,10.27,0,0,0-1.467-4.1,6.557,6.557,0,0,0-.447-.626c-.161-.179-.322-.34-.474-.5-.206-.179-.4-.358-.608-.537a7.071,7.071,0,0,0-1.288-.787,1.875,1.875,0,0,0-.331-.161c-.251-.107-.5-.2-.769-.286-.063-.027-.152-.045-.242-.089-.161-.027-.322-.072-.5-.116a.754.754,0,0,0-.313-.063,7.213,7.213,0,0,0-.787-.161,17.4,17.4,0,0,0-2.765-.206c-6.737,0-7.793,6.236-7.435,11.64.027.564.089,1.145.161,1.691.045.358.089.716.134,1.029.089.564.179,1.083.251,1.575.1.447.188.868.251,1.235.036.125.054.251.081.367.089.358.161.671.233.922.134.519.224.814.224.814s-.027.331-.134.966c-.027.161-.045.358-.072.564-.045.179-.063.4-.107.626-.054.206-.1.429-.143.653a3.136,3.136,0,0,0-.107.519.982.982,0,0,1-.072.358c-.027.143-.063.3-.089.447-.089.456-.2.931-.34,1.423a2.237,2.237,0,0,1-.107.4c-.206.832-.447,1.718-.769,2.657-.2.68-.421,1.378-.716,2.12-.179.537-.4,1.1-.635,1.664-.2.492-.4.993-.626,1.5a.808.808,0,0,1-.116.233,16.01,16.01,0,0,1-.805,1.754c-.268.582-.591,1.19-.922,1.78-.429.805-.9,1.593-1.4,2.38-.268.412-.519.787-.787,1.2a25.577,25.577,0,0,1-1.718,2.335,32.783,32.783,0,0,1-4.089,4.456c-.385.367-.769.7-1.172,1.038-.358.313-.725.608-1.1.9-.608.474-1.244.939-1.9,1.351a6.6,6.6,0,0,1-.966.626c-.447.313-.922.591-1.4.859-2.809,1.575-5.2,2.809-7.229,3.776,0,0,.116.045.322.134a1,1,0,0,1,.2.1c.725.286,1.959.805,2.684,1.074l.761.3c4.214,1.709,13.17,6.5,21.339,18.476,11.139,16.346,11.139,19.317,18.574,19.317a1.376,1.376,0,0,0,.429-.045c4.814-.537,6.227-10.6,4.295-19.675-.206-.492-.385-.993-.582-1.458,0-.027-.027-.027-.027-.045a42.936,42.936,0,0,1-2.657-5.4c-.134-.34-.268-.68-.4-1.038A4.132,4.132,0,0,1,463,294.2l-.027-.027v-.018l-.018-.027c-.045-.107-.072-.224-.116-.34-.313-.85-.582-1.709-.805-2.559a.031.031,0,0,0-.009-.018.028.028,0,0,0-.018-.009c-.045-.018-.063-.045-.107-.089-.009-.009-.018-.018-.027-.018a1.313,1.313,0,0,0-.152-.116c-.251-.188-.653-.492-1.154-.9-.072-.054-.143-.116-.224-.179-.054-.045-.116-.1-.17-.152-.268-.224-.573-.492-.886-.769-.143-.125-.277-.259-.421-.394l-.063-.063q-.4-.376-.832-.805c-.3-.3-.617-.626-.931-.975-.161-.17-.313-.349-.474-.528s-.322-.358-.474-.546-.313-.385-.474-.582c-.385-.447-.743-.922-1.083-1.4a23.673,23.673,0,0,1-1.763-2.783c-.134-.233-.259-.474-.385-.716-.045-.089-.089-.188-.134-.277-.072-.161-.152-.331-.224-.492-.107-.215-.206-.429-.3-.653-.224-.564-.438-1.136-.626-1.718-.054-.179-.107-.349-.161-.528a.276.276,0,0,1-.027-.116,16.568,16.568,0,0,1-.394-1.78c-.056-.325-.09-.657-.126-.988-.021-.191-.044-.383-.057-.576-.019-.261-.024-.527-.03-.792,0-.1-.01-.206-.01-.31a15.431,15.431,0,0,1,.3-3.042V268.9a14.923,14.923,0,0,0,3.7,5.959c4.84,4.894,11.98,6.737,11.98,6.737.948.34,1.915.716,2.926,1.056,0,.027.027.027.045.027.358.125.725.251,1.092.376s.725.242,1.1.358c.734.233,1.476.438,2.219.635a8.861,8.861,0,0,0,1.038.206c.412.063.85.107,1.279.143a.114.114,0,0,0,.054.009.522.522,0,0,0,.2.027c.134.009.268.009.4.009.009.009.009.009.018,0,.125.009.25.009.367.009.134.009.277.018.421.018s.3.009.438.009h.626c.242,0,.492-.027.725-.045.009.009.018,0,.027,0,.456-.027.868-.072,1.3-.116.1-.009.188-.018.286-.036.206-.018.412-.054.617-.089.134-.018.268-.045.4-.072.215-.036.421-.072.626-.116s.412-.089.608-.134c.5-.116.948-.251,1.4-.385a10.062,10.062,0,0,0,4.661-2.63,12.921,12.921,0,0,0,2.255-4.277,57.19,57.19,0,0,0,2.049-9.725c.4-2.434,4.205.268,7.068,0,2.5-.251.224-11.184-1.53-21.491a4.759,4.759,0,0,1,.224-2.478C501.36,237.549,501.986,227.689,502.192,221.113Zm-46.686,20.713c-3.06-.591-3.266,1.324-5.2-3.069-1.959-4.411-1.127-6.7,2.9-6.7C457.215,232.028,455.506,241.826,455.506,241.826Z" transform="translate(-247.836 34.521)" fill="#ffc3a1"/>
          <path id="Path_772" data-name="Path 772" d="M467.688,291.215a4.027,4.027,0,0,1,2.138-1.17A3.292,3.292,0,0,0,467.688,291.215Z" transform="translate(-253.041 26.184)" fill="#6c222c"/>
          <path id="Path_773" data-name="Path 773" d="M613.678,451.675c3.714-.428,9.385-.81,11.974.472,4.029,1.959,11.412,3.624,13.753,4.637,2.363,1.013,6.708,3.353,8.4,5.042,1.666,1.666,4.03-.157,0-5.29-4.029-5.11-2.273-9.476,2.229-9.476,4.479,0,19.583,3.692,22.261,9.724s10.061,4.3,6.37-2.048c-3.691-6.326-13.077-19.425-35.226-20.415-14.856-.676-23.814-.451-28.091-.225C613.137,438.327,610.436,445.575,613.678,451.675Z" transform="translate(-268.256 11.04)" fill="#fdac80"/>
          <path id="Path_774" data-name="Path 774" d="M591.227,419.035c0,.018-.018.045-.018.063-.089.17-.179.358-.277.546-.045.1-.089.188-.134.286-.152.3-.286.591-.4.877a1.2,1.2,0,0,1-.045.134v.018a5.269,5.269,0,0,0-.4.886c-.107.224-.2.447-.286.671l-.107.268q-.121.349-.242.725c-.063.161-.107.3-.152.429s-.089.3-.134.447-.089.3-.143.447l-.027.107-.107.349-.134.537c-.045.188-.09.367-.134.564-.009.045-.009.089-.018.134a.993.993,0,0,1-.027.143c-.036.179-.072.349-.107.537-.027.134-.054.277-.072.429a1.577,1.577,0,0,0-.036.3.2.2,0,0,0-.009.072.113.113,0,0,0-.009.054,3.608,3.608,0,0,0-.054.42c-.018.1-.027.2-.036.3a1.2,1.2,0,0,0-.009.179c-.018.224-.036.447-.045.68a15.42,15.42,0,0,0,.179,3.078,14.027,14.027,0,0,0,.465,2l.027.081c0,.018,0,.018.018.045q.094.3.215.591a8.376,8.376,0,0,0,.34.769c.081.161.152.331.233.483s.161.313.251.474c-3.131,6.326-44.548,8.8-67.363,9.654-.877.036-1.718.063-2.523.089h-.009c-.394.018-.787.027-1.163.045h-.009c-.385.018-.752.027-1.118.045s-.716.036-1.047.036c-.2,0-.394.009-.582.018-.3.018-.591.018-.868.036-.385.027-.743.027-1.083.045l-1.208.027a.67.67,0,0,0-.134,0c-.322.018-.608.018-.868.027-.152,0-.3.009-.429.009s-.259.009-.376.009c-.233.009-.429.018-.591.018-.34,0-.671.027-1.011.027-1.163.045-1.816.045-1.816.045l39.367,9.457a1.307,1.307,0,0,1,.179.045c.3.063.447.089.447.089s-.206,2.63-.447,6.254v.027c-.358,5.171-.814,12.284-.9,16.266a25.083,25.083,0,0,0,0,2.657c.161,1.709-29.436,2.094-58.094,1.763-21.607-.277-42.722-.948-50.148-1.763-17.268-1.915-26.045-6.836-26.045-6.836s-11.792-6.308-16.158-24.408c-1.127-4.608-2.3-9.949-3.427-15.344v-.045a.108.108,0,0,0-.018-.072c-3.266-15.845-6.147-32.21-6.147-32.21s-8.777-70.7,2.452-89.337c6.916-11.479,15.13-17.313,20.417-20.1a.108.108,0,0,0,.072-.018,27.033,27.033,0,0,1,5.35-2.228c.027,0,.027-.027.045-.027,0,0,.116.045.322.134a1,1,0,0,1,.2.1c.725.286,1.959.805,2.684,1.074l.761.3c4.214,1.709,13.17,6.5,21.339,18.476,11.139,16.346,11.139,19.317,18.574,19.317a1.376,1.376,0,0,0,.429-.045c4.814-.537,6.227-10.6,4.295-19.675-.206-.492-.385-.993-.582-1.458,0-.027-.027-.027-.027-.045a42.936,42.936,0,0,1-2.657-5.4c-.134-.34-.268-.68-.4-1.038a4.132,4.132,0,0,1-.179-.492l4.59,6.934c8.017,15.845,18.5,50.506,18.5,50.506s7.945,26.313,8.482,33.444a57.081,57.081,0,0,0,.8,5.959c.009.027.009.054.018.081a1.345,1.345,0,0,0,.018.179c.009.063.018.125.027.2.626,2.729,1.646,4.232,3.534,5.091a19.357,19.357,0,0,0,2.926.537.25.25,0,0,1,.054.009.229.229,0,0,1,.063.018,2.127,2.127,0,0,1,.331.045c2.416.34,5.995.76,10.361,1.262q1.235.134,2.6.3c.465.054.931.116,1.4.17,20.4,2.246,53.155,5.449,69.841,7.068h.063c2.46.251,4.572.456,6.236.608a2.628,2.628,0,0,1,2.273,1.852A2.662,2.662,0,0,1,591.227,419.035Z" transform="translate(-244.117 26.036)" fill="#ffb948"/>
          <path id="Path_775" data-name="Path 775" d="M489.023,231.717c12.223-2.521,14.113-20.258,15.261-20.843h.022C506.2,215.849,508.809,228.431,489.023,231.717Z" transform="translate(-255.289 34.52)" fill="#ffc3a1"/>
          <path id="Path_776" data-name="Path 776" d="M486.633,234.472a9.852,9.852,0,0,1-2.138.022C485.238,234.517,485.935,234.517,486.633,234.472Z" transform="translate(-254.811 32.035)" fill="#ffc3a1"/>
          <path id="Path_777" data-name="Path 777" d="M465.782,298.014a.362.362,0,0,0-.022-.09.289.289,0,0,0-.022-.135c-.068-.247-.113-.472-.157-.7a7.487,7.487,0,0,1-.2-.968c-.067-.315-.113-.608-.157-.923,0-.067-.022-.135-.022-.18a5.38,5.38,0,0,1-.068-.608,8.494,8.494,0,0,1,0-1.508,1.985,1.985,0,0,1,.046-.517,5.1,5.1,0,0,1,.248-1.171,1.592,1.592,0,0,1,.112-.293,2.268,2.268,0,0,1,.225-.472.953.953,0,0,1,.225-.383c.089-.112.179-.247.269-.36a3.292,3.292,0,0,1,2.138-1.17,1.885,1.885,0,0,1,.608-.09,5.459,5.459,0,0,1,1.058-.022s-12.717-3.286-15.689-12.7C451.895,288.425,465.782,298.014,465.782,298.014Z" transform="translate(-251.609 27.691)" fill="#ffc3a1"/>
          <path id="Path_778" data-name="Path 778" d="M453.959,241.255c1.936,4.389,2.138,2.476,5.2,3.062,0,0,1.711-9.792-2.3-9.769C452.833,234.547,452,236.843,453.959,241.255Z" transform="translate(-251.49 32.027)" fill="#ffc3a1"/>
          <path id="Path_779" data-name="Path 779" d="M448.835,251.42a4.733,4.733,0,0,0-.089-1.778c.135.517.225.81.225.81S448.948,250.79,448.835,251.42Z" transform="translate(-251.047 30.438)" fill="#ffc3a1"/>
          <path id="Path_780" data-name="Path 780" d="M448.454,248.422c-.113-.472-.225-1.013-.337-1.6C448.252,247.432,448.365,247.972,448.454,248.422Z" transform="translate(-250.98 30.734)" fill="#ffc3a1"/>
          <path id="Path_781" data-name="Path 781" d="M507.6,211.288c-1.35,8.8-2.7,9.814-4.389,9.814-.54,0-1.441-1.531-2.432-3.624v-.023c-.247-.54-.517-1.1-.765-1.687-1.8-4.03-3.759-8.824-4.569-8.531h-.022c-1.148.585-3.038,18.322-15.261,20.843-.113.022-.248.045-.361.067l-.4.068c-.135.022-.27.022-.405.045-.248.045-.5.068-.743.09-.7.045-1.4.045-2.138.022h-.135a22.2,22.2,0,0,1-3.219-.518c-.563,1.013-1.1,2.094-1.62,3.174-.45.923-.9,1.868-1.351,2.769-2.25,4.5-4.771,8.485-9.071,8.261a91.2,91.2,0,0,0-.135-10.04.441.441,0,0,0-.022-.18c-.022-.248-.068-.495-.113-.743a10.225,10.225,0,0,0-1.463-4.1,6.4,6.4,0,0,0-.45-.63c-.158-.18-.316-.338-.473-.5a4.562,4.562,0,0,0-.607-.54,7.219,7.219,0,0,0-1.283-.788,2.283,2.283,0,0,0-.337-.157,7.763,7.763,0,0,0-.766-.293,1.617,1.617,0,0,1-.247-.09,4.856,4.856,0,0,1-.5-.113.8.8,0,0,0-.315-.067c-.248-.067-.518-.113-.787-.157a17.367,17.367,0,0,0-2.769-.2c-6.73,0-7.788,6.235-7.428,11.637.022.563.09,1.148.157,1.688.046.36.09.72.135,1.035.09.563.181,1.08.248,1.576.113.585.225,1.126.337,1.6.09.361.158.676.225.923a4.733,4.733,0,0,1,.089,1.778c-.022.157-.045.361-.067.563-.045.18-.067.405-.113.63-.045.2-.089.428-.135.653a3.615,3.615,0,0,0-.113.518,1.026,1.026,0,0,1-.067.36c-.113.563-.27,1.194-.428,1.868a2.637,2.637,0,0,1-.113.405c-.225.833-.472,1.733-.765,2.656-.225.675-.472,1.395-.72,2.116-.18.54-.405,1.1-.631,1.665-.2.5-.4.99-.63,1.508a.706.706,0,0,1-.113.225q-.372.878-.811,1.756c-.293.585-.608,1.17-.922,1.778-.428.811-.9,1.6-1.4,2.386-.27.405-.517.787-.787,1.193-.54.788-1.1,1.576-1.711,2.341a33,33,0,0,1-4.1,4.457c-.383.36-.765.7-1.17,1.035-.36.315-.72.608-1.1.9a21.989,21.989,0,0,1-1.891,1.351c-.315.225-.63.428-.968.63-.45.315-.922.585-1.4.855-2.813,1.576-5.2,2.814-7.225,3.782-.022,0-.022.022-.045.022a27.661,27.661,0,0,0-5.357,2.228.082.082,0,0,1-.067.022c-5.493,1.846-5.582.023-5.582.023s-3.039-16.9,2.048-32.458c5.064-15.553,6.752-25.705,9.116-36.869s8.126-29.756,35.181-35.181c27.055-5.4,42.609,18.614,47.335,18.614C504.228,195.734,508.954,202.488,507.6,211.288Z" transform="translate(-246.43 38.157)" fill="#6c222c"/>
          <path id="Path_782" data-name="Path 782" d="M417.574,291.479a53.049,53.049,0,0,1-5.357,2.228A27.661,27.661,0,0,1,417.574,291.479Z" transform="translate(-247.201 26.033)" fill="#6c222c"/>
          <path id="Path_783" data-name="Path 783" d="M448.454,248.422c-.113-.472-.225-1.013-.337-1.6C448.252,247.432,448.365,247.972,448.454,248.422Z" transform="translate(-250.98 30.734)" fill="#6c222c"/>
          <path id="Path_784" data-name="Path 784" d="M448.835,251.42a4.733,4.733,0,0,0-.089-1.778c.135.517.225.81.225.81S448.948,250.79,448.835,251.42Z" transform="translate(-251.047 30.438)" fill="#6c222c"/>
          <path id="Path_785" data-name="Path 785" d="M489.023,231.717c12.223-2.521,14.113-20.258,15.261-20.843h.022C506.2,215.849,508.809,228.431,489.023,231.717Z" transform="translate(-255.289 34.52)" fill="#e87d49"/>
          <path id="Path_786" data-name="Path 786" d="M486.633,234.472a9.852,9.852,0,0,1-2.138.022C485.238,234.517,485.935,234.517,486.633,234.472Z" transform="translate(-254.811 32.035)" fill="#e87d49"/>
          <path id="Path_787" data-name="Path 787" d="M465.782,298.014a.362.362,0,0,0-.022-.09,15.554,15.554,0,0,1-.54-2.723c0-.067-.022-.135-.022-.18a5.38,5.38,0,0,1-.068-.608,8.494,8.494,0,0,1,0-1.508,1.985,1.985,0,0,1,.046-.517,5.1,5.1,0,0,1,.248-1.171,1.592,1.592,0,0,1,.112-.293,2.268,2.268,0,0,1,.225-.472,2.1,2.1,0,0,1,.225-.383c.089-.112.179-.247.269-.36a4.027,4.027,0,0,1,2.138-1.17c.2-.022.383-.068.608-.09a5.459,5.459,0,0,1,1.058-.022s-12.717-3.286-15.689-12.7C451.895,288.425,465.782,298.014,465.782,298.014Z" transform="translate(-251.609 27.691)" fill="#e87d49"/>
          <path id="Path_788" data-name="Path 788" d="M453.959,241.255c1.936,4.389,2.138,2.476,5.2,3.062,0,0,1.711-9.792-2.3-9.769C452.833,234.547,452,236.843,453.959,241.255Z" transform="translate(-251.49 32.027)" fill="#f7a87d"/>
          <path id="Path_789" data-name="Path 789" d="M552.581,468.241s-99.9-19.918-107.333-28.684-14.85-40.1-14.85-40.1" transform="translate(-249.115 14.664)" fill="none" stroke="#efa22c" stroke-miterlimit="10" stroke-width="1"/>
          <path id="Path_790" data-name="Path 790" d="M445.754,444.276s-11.526,12.865-10.49,19.245" transform="translate(-249.621 9.945)" fill="none" stroke="#efa22c" stroke-miterlimit="10" stroke-width="1"/>
          <path id="Path_791" data-name="Path 791" d="M504.418,411.983a10.346,10.346,0,0,0,6.55,6.326s75.7,9.363,84.723,8.868c9-.5,8.509,2.453,8.509,2.453-3.625,13.663-3.354,13.258-1.868,19.74-2.679,8.441-72.636,10.354-79.118,10.534-6.483.2-14.9-1.666-14.9-1.666s-1.6-12.177-2.027-24.579C506.016,426.051,505.093,417.476,504.418,411.983Z" transform="translate(-256.908 13.345)" fill="#efa22c"/>
          <g id="Group_2010" data-name="Group 2010" transform="translate(-1.369 17.955)">
            <g id="Group_2009" data-name="Group 2009" transform="translate(386.779 398.287)">
              <path id="Path_756" data-name="Path 756" d="M735.718,389.424l.075-.2L732,381.94,732,381.9l-.045-.143H839.776l3.363,7.664Z" transform="translate(-696.107 -381.76)" fill="#1b3867"/>
              <g id="Group_2008" data-name="Group 2008" transform="translate(19.187 7.665)">
                <path id="Path_757" data-name="Path 757" d="M837.606,391.97l-27.034,79.247-116.109,3.941,35.723-83.188Z" transform="translate(-709.76 -391.97)" fill="#6e9bc5"/>
                <path id="Path_758" data-name="Path 758" d="M845.24,494.3H728.819L709.76,458.76h111.3Z" transform="translate(-709.76 -408.623)" fill="#8ebce6"/>
                <path id="Path_759" data-name="Path 759" d="M744.8,424.317l7.04-18.634H823.6" transform="translate(-718.496 -395.389)" fill="none" stroke="#fff" stroke-miterlimit="10" stroke-width="1" opacity="0.6"/>
                <line id="Line_315" data-name="Line 315" x1="76.086" transform="translate(22.591 58.289)" fill="none" stroke="#f7f7f7" stroke-miterlimit="10" stroke-width="1" opacity="0.6"/>
              </g>
              <path id="Path_755" data-name="Path 755" d="M723.888,389.222l-.075.2-20.426,50.137L690.858,470.3l-6.658-.113.548-1.359,35.259-87.07.075.143.015.038Z" transform="translate(-684.2 -381.76)" fill="#22509a"/>
            </g>
            <path id="Path_795" data-name="Path 795" d="M702.4,503.227H603.79v-8.648c1.389-.03,43.711.33,43.711.33h.03l.105.068.3.218,3.033,2.154h.015l.285.2v.015l.428.293.353.248h.1l.368.015,4.046.075,7.589.128,5.157.083,1.5.03,29.306.488,1.389,2.627h.008Z" transform="translate(-277.373 -11.602)" fill="#202020"/>
          </g>
        </g>
        <line id="Line_318" data-name="Line 318" y2="8.575" transform="translate(227.789 913.896)" fill="none" stroke="#fff" stroke-miterlimit="10" stroke-width="1"/>
        <line id="Line_320" data-name="Line 320" y2="8.575" transform="translate(261.789 915.896)" fill="none" stroke="#fff" stroke-miterlimit="10" stroke-width="1"/>
      </g>
      <path id="Path_770" data-name="Path 770" d="M446.891,954.875c-.27,2.926-.517,5.717-.72,8.373" transform="translate(-251.775 -43.817)" fill="none" stroke="#fff" stroke-miterlimit="10" stroke-width="1"/>
      <line id="Line_317" data-name="Line 317" x1="0.657" y2="9.024" transform="translate(161.938 907.707)" fill="none" stroke="#fff" stroke-miterlimit="10" stroke-width="1"/>
    </g>
  </g>
</svg>
