<svg id="Group_2" data-name="Group 2" xmlns="http://www.w3.org/2000/svg" width="146.08" height="25.674" viewBox="0 0 146.08 25.674">
  <path id="Path_1" data-name="Path 1" d="M274.393,100.39v25.674H248.73V100.39h6.892v18.782H267.5V107.293h-8.554v-6.9Z" transform="translate(-248.73 -100.39)" fill="#00b8de"/>
  <g id="Group_1" data-name="Group 1" transform="translate(33.775 4.744)">
    <path id="Path_2" data-name="Path 2" d="M279.211,104.891h7.947a4.967,4.967,0,0,1,3.51,1.1,4.1,4.1,0,0,1,1.17,3.145,4.269,4.269,0,0,1-.475,2.084,3.271,3.271,0,0,1-1.329,1.329,3.409,3.409,0,0,1,1.78,1.182,3.74,3.74,0,0,1,.609,2.279,4.384,4.384,0,0,1-1.28,3.425,5.322,5.322,0,0,1-3.693,1.158h-8.24Zm7.338,6.509q2.217,0,2.218-2a2.031,2.031,0,0,0-.548-1.572,2.851,2.851,0,0,0-1.914-.5h-3.8V111.4Zm.122,6.777a2.674,2.674,0,0,0,1.841-.524,2.347,2.347,0,0,0,.573-1.792,1.939,1.939,0,0,0-.6-1.572,3.209,3.209,0,0,0-2.036-.5H282.5v4.388Z" transform="translate(-279.211 -104.647)" fill="#00b8de"/>
    <path id="Path_3" data-name="Path 3" d="M295.838,119.249a5.65,5.65,0,0,1-1.865-4.559v-9.8h3.29v9.556a3.5,3.5,0,0,0,.964,2.682,3.9,3.9,0,0,0,2.767.9,3.847,3.847,0,0,0,2.754-.9,3.523,3.523,0,0,0,.952-2.682v-9.556h3.291v9.8a5.678,5.678,0,0,1-1.853,4.546,7.626,7.626,0,0,1-5.144,1.6A7.712,7.712,0,0,1,295.838,119.249Z" transform="translate(-277.616 -104.647)" fill="#00b8de"/>
    <path id="Path_4" data-name="Path 4" d="M309.754,120v-2.9a14.472,14.472,0,0,0,2.339.707,11.469,11.469,0,0,0,2.414.268,6.789,6.789,0,0,0,2.571-.341,1.392,1.392,0,0,0,.744-1.414,1.709,1.709,0,0,0-.341-1.121,2.7,2.7,0,0,0-1.12-.719q-.781-.3-2.439-.768a7.762,7.762,0,0,1-3.462-1.706,4.391,4.391,0,0,1,.586-6.167,7.675,7.675,0,0,1,4.606-1.17,17.684,17.684,0,0,1,2.6.183,10.1,10.1,0,0,1,2.011.475v2.9a11.711,11.711,0,0,0-4.17-.756,6.364,6.364,0,0,0-2.474.366,1.341,1.341,0,0,0-.816,1.341,1.47,1.47,0,0,0,.3.975,2.486,2.486,0,0,0,1.023.646,21.174,21.174,0,0,0,2.232.67,7.84,7.84,0,0,1,3.779,1.889,4.248,4.248,0,0,1,1.047,2.962,3.927,3.927,0,0,1-1.609,3.328,7.854,7.854,0,0,1-4.754,1.207A12.667,12.667,0,0,1,309.754,120Z" transform="translate(-275.942 -104.671)" fill="#00b8de"/>
    <path id="Path_5" data-name="Path 5" d="M322.99,104.891h3.291v15.7H322.99Z" transform="translate(-274.48 -104.647)" fill="#00b8de"/>
    <path id="Path_6" data-name="Path 6" d="M329.348,104.891H332.2l7.435,10.458V104.891h3.291v15.7h-2.852l-7.435-10.458V120.59h-3.291Z" transform="translate(-273.793 -104.647)" fill="#00b8de"/>
    <path id="Path_7" data-name="Path 7" d="M344.99,104.891h11.262v2.56h-7.971v4.022h7.069v2.535h-7.069v4.047h7.971v2.535H344.99Z" transform="translate(-272.103 -104.647)" fill="#00b8de"/>
    <path id="Path_8" data-name="Path 8" d="M357.954,120v-2.9a14.481,14.481,0,0,0,2.34.707,11.458,11.458,0,0,0,2.413.268,6.8,6.8,0,0,0,2.572-.341,1.394,1.394,0,0,0,.744-1.414,1.709,1.709,0,0,0-.342-1.121,2.7,2.7,0,0,0-1.12-.719q-.781-.3-2.439-.768a7.762,7.762,0,0,1-3.462-1.706,4.394,4.394,0,0,1,.586-6.167,7.679,7.679,0,0,1,4.607-1.17,17.678,17.678,0,0,1,2.6.183,10.094,10.094,0,0,1,2.011.475v2.9a11.709,11.709,0,0,0-4.169-.756,6.357,6.357,0,0,0-2.474.366,1.34,1.34,0,0,0-.817,1.341,1.47,1.47,0,0,0,.3.975,2.484,2.484,0,0,0,1.024.646,21.057,21.057,0,0,0,2.231.67,7.84,7.84,0,0,1,3.779,1.889,4.249,4.249,0,0,1,1.048,2.962,3.929,3.929,0,0,1-1.609,3.328,7.857,7.857,0,0,1-4.755,1.207A12.666,12.666,0,0,1,357.954,120Z" transform="translate(-270.733 -104.671)" fill="#00b8de"/>
    <path id="Path_9" data-name="Path 9" d="M370.274,120v-2.9a14.512,14.512,0,0,0,2.34.707,11.457,11.457,0,0,0,2.413.268,6.8,6.8,0,0,0,2.572-.341,1.394,1.394,0,0,0,.744-1.414A1.715,1.715,0,0,0,378,115.2a2.7,2.7,0,0,0-1.121-.719q-.781-.3-2.438-.768a7.749,7.749,0,0,1-3.462-1.706,4.392,4.392,0,0,1,.585-6.167,7.679,7.679,0,0,1,4.607-1.17,17.678,17.678,0,0,1,2.6.183,10.094,10.094,0,0,1,2.011.475v2.9a11.709,11.709,0,0,0-4.169-.756,6.357,6.357,0,0,0-2.474.366,1.34,1.34,0,0,0-.817,1.341,1.47,1.47,0,0,0,.3.975,2.484,2.484,0,0,0,1.024.646,21.052,21.052,0,0,0,2.231.67,7.835,7.835,0,0,1,3.779,1.889,4.244,4.244,0,0,1,1.048,2.962,3.929,3.929,0,0,1-1.609,3.328,7.856,7.856,0,0,1-4.754,1.207A12.668,12.668,0,0,1,370.274,120Z" transform="translate(-269.402 -104.671)" fill="#00b8de"/>
  </g>
</svg>
